<svg version="1.1" xmlns="http://www.w3.org/2000/svg" x="0px" y="0px"
   viewBox="0 0 495.1 485" enable-background="new 0 0 495.1 485">
<g>
  <path fill="none" stroke="currentColor" stroke-width="8" stroke-miterlimit="10" d="M0,5c35.4,0,35.4,20,70.7,20
    c35.4,0,35.4-20,70.7-20c35.4,0,35.4,20,70.7,20c35.4,0,35.4-20,70.7-20c35.4,0,35.4,20,70.7,20C389,25,389,5,424.4,5
    s35.4,20,70.7,20"/>
</g>
<g>
  <path fill="none" stroke="currentColor" stroke-width="8" stroke-miterlimit="10" d="M0,81.1c35.4,0,35.4,20,70.7,20
    c35.4,0,35.4-20,70.7-20c35.4,0,35.4,20,70.7,20c35.4,0,35.4-20,70.7-20c35.4,0,35.4,20,70.7,20c35.4,0,35.4-20,70.7-20
    s35.4,20,70.7,20"/>
</g>
<g>
  <path fill="none" stroke="currentColor" stroke-width="8" stroke-miterlimit="10" d="M0,157.3c35.4,0,35.4,20,70.7,20
    c35.4,0,35.4-20,70.7-20c35.4,0,35.4,20,70.7,20c35.4,0,35.4-20,70.7-20c35.4,0,35.4,20,70.7,20c35.4,0,35.4-20,70.7-20
    s35.4,20,70.7,20"/>
</g>
<g>
  <path fill="none" stroke="currentColor" stroke-width="8" stroke-miterlimit="10" d="M0,233.9c35.4,0,35.4,20,70.7,20
    c35.4,0,35.4-20,70.7-20c35.4,0,35.4,20,70.7,20c35.4,0,35.4-20,70.7-20c35.4,0,35.4,20,70.7,20c35.4,0,35.4-20,70.7-20
    s35.4,20,70.7,20"/>
</g>
<g>
  <path fill="none" stroke="currentColor" stroke-width="8" stroke-miterlimit="10" d="M0,309.9c35.4,0,35.4,20,70.7,20
    c35.4,0,35.4-20,70.7-20c35.4,0,35.4,20,70.7,20c35.4,0,35.4-20,70.7-20c35.4,0,35.4,20,70.7,20c35.4,0,35.4-20,70.7-20
    s35.4,20,70.7,20"/>
</g>
<g>
  <path fill="none" stroke="currentColor" stroke-width="8" stroke-miterlimit="10" d="M0,385c35.4,0,35.4,20,70.7,20
    c35.4,0,35.4-20,70.7-20c35.4,0,35.4,20,70.7,20c35.4,0,35.4-20,70.7-20c35.4,0,35.4,20,70.7,20c35.4,0,35.4-20,70.7-20
    s35.4,20,70.7,20"/>
</g>
<g>
  <path fill="none" stroke="currentColor" stroke-width="8" stroke-miterlimit="10" d="M0,460.1c35.4,0,35.4,20,70.7,20
    c35.4,0,35.4-20,70.7-20c35.4,0,35.4,20,70.7,20c35.4,0,35.4-20,70.7-20c35.4,0,35.4,20,70.7,20c35.4,0,35.4-20,70.7-20
    s35.4,20,70.7,20"/>
</g>
</svg>
