<?xml version="1.0" standalone="no"?>
<!DOCTYPE svg PUBLIC "-//W3C//DTD SVG 20010904//EN"
 "http://www.w3.org/TR/2001/REC-SVG-20010904/DTD/svg10.dtd">
<svg version="1.0" xmlns="http://www.w3.org/2000/svg"
 width="260.000000pt" height="260.000000pt" viewBox="0 0 260.000000 260.000000"
 preserveAspectRatio="xMidYMid meet">
<metadata>
Created by potrace 1.14, written by Peter Selinger 2001-2017
</metadata>
<g transform="translate(0.000000,260.000000) scale(0.100000,-0.100000)"
fill="#000000" stroke="none">
<path d="M925 2269 c-44 -4 -91 -10 -105 -13 -14 -3 -38 -8 -55 -12 -38 -7
-119 -37 -182 -65 -209 -97 -383 -307 -455 -549 -38 -132 -56 -382 -34 -496 3
-17 8 -47 10 -67 18 -136 112 -331 221 -454 42 -49 159 -139 226 -176 236
-129 598 -146 850 -41 224 93 393 275 477 511 28 80 28 81 8 85 -12 2 -127 3
-256 3 l-235 0 -20 -41 c-71 -145 -177 -211 -350 -218 -198 -9 -354 107 -418
309 -27 84 -34 142 -35 255 0 233 71 410 202 499 85 58 229 83 340 59 104 -22
204 -100 250 -194 15 -30 32 -54 39 -55 61 -4 489 0 494 5 9 8 -32 125 -72
206 -125 251 -384 422 -674 446 -117 9 -148 10 -226 3z"/>
<path d="M2143 881 c-114 -29 -201 -131 -208 -247 -7 -131 73 -253 189 -286
59 -17 174 -14 219 5 137 58 201 198 159 347 -20 69 -95 149 -162 172 -50 16
-148 21 -197 9z"/>
</g>
</svg>
