<?xml version="1.0" encoding="UTF-8" standalone="no"?>
<!DOCTYPE svg PUBLIC "-//W3C//DTD SVG 1.1//EN" "http://www.w3.org/Graphics/SVG/1.1/DTD/svg11.dtd">
<svg width="100%" height="100%" viewBox="0 0 502 263" version="1.1" xmlns="http://www.w3.org/2000/svg" xmlns:xlink="http://www.w3.org/1999/xlink" xml:space="preserve" xmlns:serif="http://www.serif.com/" style="fill-rule:evenodd;clip-rule:evenodd;stroke-linecap:round;stroke-linejoin:round;stroke-miterlimit:1.5;">
    <g transform="matrix(1,0,0,1,-265.348,-149.029)">
        <g id="macbook" transform="matrix(1,0,0,1,-0.416992,0)">
            <g id="display">
              <g transform="matrix(0.988769,0,0,0.987455,8.25604,2.27572)">
                  <path d="M724.638,171.039C724.638,160.055 715.745,151.15 704.775,151.15C634.083,151.15 395.17,151.15 324.477,151.15C313.508,151.15 304.615,160.055 304.615,171.039C304.615,230.503 304.615,402.839 304.615,402.839L724.638,402.839L724.638,171.039Z" style="stroke:rgb(124,124,124);stroke-width:5.06px;"/>
              </g>
              <g transform="matrix(1.02731,0,0,0.940718,-69.5192,54.1737)">
                  <rect x="384.175" y="136.918" width="373.708" height="211.066" style="fill:rgb(36,36,36);"/>
              </g>
              <g transform="matrix(0.85479,0,0,0.85479,434.93,7.72561)">
                  <circle cx="95.25" cy="189.052" r="6.077" style="fill:rgb(64,64,64);"/>
              </g>
            </g>
            <g id="base">
              <g transform="matrix(1,0,0,0.61004,-0.152806,153.007)">
                  <path d="M767.084,400.061L265.918,400.061L265.918,406.629C265.918,416.242 270.672,424.035 276.536,424.035C342.075,424.035 690.927,424.035 756.466,424.035C762.33,424.035 767.084,416.242 767.084,406.629C767.084,402.902 767.084,400.061 767.084,400.061Z" style="fill:rgb(121,121,121);"/>
              </g>
              <g transform="matrix(1,0,0,1,0,-3)">
                  <path d="M766.932,400.061L265.765,400.061L265.765,404.708C265.765,405.415 266.046,406.093 266.545,406.593C267.045,407.093 267.723,407.373 268.43,407.373C305.167,407.373 710.18,407.373 761.579,407.373C764.535,407.373 766.932,404.977 766.932,402.02L766.932,400.061Z" style="fill:rgb(150,150,150);"/>
              </g>
              <g transform="matrix(1,0,0,0.849185,0,59.4535)">
                  <path d="M584.228,397.566L449.556,397.566L449.556,400.946C449.556,403.835 451.545,406.178 453.999,406.178C474.442,406.178 559.341,406.178 579.785,406.178C582.238,406.178 584.228,403.835 584.228,400.946C584.228,399.142 584.228,397.566 584.228,397.566Z" style="fill:rgb(182,182,182);"/>
              </g>
            </g>
        </g>
        <g id="screen">
            <g transform="matrix(1.32921,0,0,1.32921,-111.196,-58.5909)">
                <g transform="matrix(1.75791,0,0,1.75791,-358.437,-142.968)">
                    <rect x="394.16" y="188.087" width="12.098" height="3.379" style="fill:rgb(95,204,239);"/>
                </g>
                <g transform="matrix(1.08089,0,0,1.75791,-45.3587,-142.968)">
                    <rect x="394.16" y="188.087" width="12.098" height="3.379" style="fill:rgb(95,204,239);"/>
                </g>
                <g transform="matrix(1.36838,0,0,1.75791,-179.532,-142.968)">
                    <rect x="394.16" y="188.087" width="12.098" height="3.379" style="fill:rgb(0,156,206);"/>
                </g>
                <g transform="matrix(1.75791,0,0,1.75791,-294.738,-142.968)">
                    <rect x="394.16" y="188.087" width="12.098" height="3.379" style="fill:rgb(140,203,88);"/>
                </g>
            </g>
            <g transform="matrix(1.32921,0,0,1.32921,-111.196,-58.5909)">
                <g transform="matrix(1.75791,0,0,1.75791,-358.437,-133.968)">
                    <rect x="394.16" y="188.087" width="12.098" height="3.379" style="fill:rgb(95,204,239);"/>
                </g>
                <g transform="matrix(3.30941,0,0,1.75791,-892.278,-133.968)">
                    <rect x="394.16" y="188.087" width="12.098" height="3.379" style="fill:rgb(140,203,88);"/>
                </g>
                <g transform="matrix(1.08089,0,0,1.75791,-31.3587,-133.968)">
                    <rect x="394.16" y="188.087" width="12.098" height="3.379" style="fill:rgb(95,204,239);"/>
                </g>
                <g transform="matrix(2.52736,0,0,1.75791,-636.353,-133.968)">
                    <rect x="394.16" y="188.087" width="12.098" height="3.379" style="fill:rgb(0,156,206);"/>
                </g>
            </g>
            <g transform="matrix(1.32921,0,0,1.32921,-111.196,-58.5909)">
                <g transform="matrix(1.36215,0,0,1.75791,-202.444,-115.968)">
                    <rect x="394.16" y="188.087" width="12.098" height="3.379" style="fill:rgb(107,64,184);"/>
                </g>
                <g transform="matrix(4.87661,0,0,1.75791,-1566.7,-115.968)">
                    <rect x="394.16" y="188.087" width="12.098" height="3.379" style="fill:rgb(99,141,220);"/>
                </g>
                <g transform="matrix(1.86692,0,0,1.75791,-317.263,-115.968)">
                    <rect x="394.16" y="188.087" width="12.098" height="3.379" style="fill:rgb(233,173,90);"/>
                </g>
            </g>
            <g transform="matrix(1.32921,0,0,1.32921,-111.196,-58.5909)">
                <g transform="matrix(1.36215,0,0,1.75791,-195.444,-106.968)">
                    <rect x="394.16" y="188.087" width="12.098" height="3.379" style="fill:rgb(107,64,184);"/>
                </g>
                <g transform="matrix(2.09658,0,0,1.75791,-463.925,-106.968)">
                    <rect x="394.16" y="188.087" width="12.098" height="3.379" style="fill:rgb(194,150,254);"/>
                </g>
                <g transform="matrix(1.47695,0,0,1.75791,-189.691,-106.968)">
                    <rect x="394.16" y="188.087" width="12.098" height="3.379" style="fill:rgb(194,150,254);"/>
                </g>
                <g transform="matrix(1.47695,0,0,1.75791,-167.691,-106.968)">
                    <rect x="394.16" y="188.087" width="12.098" height="3.379" style="fill:rgb(194,150,254);"/>
                </g>
                <g transform="matrix(2.93212,0,0,1.75791,-719.262,-106.968)">
                    <rect x="394.16" y="188.087" width="12.098" height="3.379" style="fill:rgb(194,150,254);"/>
                </g>
                <g transform="matrix(1.52344,0,0,1.75791,-124.475,-106.968)">
                    <rect x="394.16" y="188.087" width="12.098" height="3.379" style="fill:rgb(215,221,247);"/>
                </g>
            </g>
            <g transform="matrix(3.1485,0,0,2.33663,-889.467,-178.275)">
                <rect x="394.16" y="188.087" width="12.098" height="3.379" style="fill:rgb(232,74,108);"/>
            </g>
            <g transform="matrix(1.32921,0,0,1.32921,-111.196,-116.466)">
                <g transform="matrix(2.98495,0,0,1.75791,-822.696,-37.2582)">
                    <rect x="394.16" y="188.087" width="12.098" height="3.379" style="fill:rgb(232,74,108);"/>
                </g>
                <g transform="matrix(2.80832,0,0,1.75791,-713.005,-37.2582)">
                    <rect x="394.16" y="188.087" width="12.098" height="3.379" style="fill:rgb(194,150,254);"/>
                </g>
                <g transform="matrix(3.42965,0,0,1.75791,-919.907,-37.2582)">
                    <rect x="394.16" y="188.087" width="12.098" height="3.379" style="fill:rgb(140,203,88);"/>
                </g>
                <g transform="matrix(1.89995,0,0,1.75791,-271.595,-37.2582)">
                    <rect x="394.16" y="188.087" width="12.098" height="3.379" style="fill:rgb(140,203,88);"/>
                </g>
            </g>
            <g transform="matrix(1.32921,0,0,1.32921,-111.196,-126.744)">
                <g transform="matrix(1.29153,0,0,1.75791,-141.15,-18.9939)">
                    <rect x="394.16" y="188.087" width="12.098" height="3.379" style="fill:rgb(232,74,108);"/>
                </g>
                <g transform="matrix(2.50863,0,0,1.75791,-601.175,-18.9939)">
                    <rect x="394.16" y="188.087" width="12.098" height="3.379" style="fill:rgb(194,150,254);"/>
                </g>
                <g transform="matrix(3.06325,0,0,1.75791,-785.418,-18.9939)">
                    <rect x="394.16" y="188.087" width="12.098" height="3.379" style="fill:rgb(140,203,88);"/>
                </g>
                <g transform="matrix(3.76382,0,0,1.75791,-1020.08,-18.9939)">
                    <rect x="394.16" y="188.087" width="12.098" height="3.379" style="fill:rgb(140,203,88);"/>
                </g>
                <g transform="matrix(2.44319,0,0,1.75791,-450.007,-18.9939)">
                    <rect x="394.16" y="188.087" width="12.098" height="3.379" style="fill:rgb(140,203,88);"/>
                </g>
            </g>
            <g transform="matrix(1.32921,0,0,1.32921,-111.196,-126.744)">
                <g transform="matrix(2.33017,0,0,1.75791,-542.728,-9.08896)">
                    <rect x="394.16" y="188.087" width="12.098" height="3.379" style="fill:rgb(232,74,108);"/>
                </g>
                <g transform="matrix(1.37495,0,0,1.75791,-133.327,-9.08896)">
                    <rect x="394.16" y="188.087" width="12.098" height="3.379" style="fill:rgb(194,150,254);"/>
                </g>
                <g transform="matrix(1.86747,0,0,1.75791,-306.458,-9.08896)">
                    <rect x="394.16" y="188.087" width="12.098" height="3.379" style="fill:rgb(215,221,247);"/>
                </g>
                <g transform="matrix(3.72346,0,0,1.75791,-1011.02,-9.08896)">
                    <rect x="394.16" y="188.087" width="12.098" height="3.379" style="fill:rgb(194,150,254);"/>
                </g>
                <g transform="matrix(1.78879,0,0,1.75791,-199.278,-9.08896)">
                    <rect x="394.16" y="188.087" width="12.098" height="3.379" style="fill:rgb(233,173,90);"/>
                </g>
            </g>
            <g transform="matrix(2.34977,0,0,2.33663,-528.912,-125.613)">
                <rect x="394.16" y="188.087" width="12.098" height="3.379" style="fill:rgb(215,221,247);"/>
            </g>
            <g transform="matrix(3.09728,0,0,2.33663,-832.593,-112.577)">
                <rect x="394.16" y="188.087" width="12.098" height="3.379" style="fill:rgb(232,74,108);"/>
            </g>
            <g transform="matrix(1.63268,0,0,2.33663,-266.013,-99.9976)">
                <rect x="394.16" y="188.087" width="12.098" height="3.379" style="fill:rgb(232,74,108);"/>
            </g>
            <g transform="matrix(3.96761,0,0,2.33663,-1204.73,-86.468)">
                <rect x="394.16" y="188.087" width="12.098" height="3.379" style="fill:rgb(232,74,108);"/>
            </g>
            <g transform="matrix(3.1485,0,0,2.33663,-889.467,-73.7456)">
                <rect x="394.16" y="188.087" width="12.098" height="3.379" style="fill:rgb(232,74,108);"/>
            </g>
        </g>
    </g>
</svg>
