<svg width="100%" height="100%" viewBox="0 0 923 484" version="1.1" xmlns="http://www.w3.org/2000/svg" xmlns:xlink="http://www.w3.org/1999/xlink" xml:space="preserve" xmlns:serif="http://www.serif.com/" style="fill-rule:evenodd;clip-rule:evenodd;stroke-linecap:round;stroke-linejoin:round;stroke-miterlimit:1.5;">
  <g id="plant">
    <path d="M212.162,332.03l-100.69,-0l18.051,91.668l65.276,0.109l17.363,-91.777Z" style="fill:#fff;stroke:#020000;stroke-width:1px;"/>
    <path d="M185.658,160.283c-0,0 -41.231,69.35 -33.845,137.929c0,-0 -20.905,-20.831 1.197,-84.367c-0,0 12.086,-33.631 41.886,-71.487l-9.238,17.925Z" style="fill:#67b500;stroke:#3c8900;stroke-width:3.5px;"/>
    <g>
      <path d="M147.658,302.827c0,-0 -33.658,-60.047 -121.352,-54.841c0,0 47.72,-26.608 96.264,7.386c-0,-0 25.258,18.514 35.391,61.073l-10.303,-13.618Z" style="fill:#75ce00;stroke:#419400;stroke-width:5px;"/>
      <path d="M154.171,309.112c-0,0 -16.465,-53.56 -76.533,-63.67" style="fill:none;stroke:#419400;stroke-width:2px;"/>
    </g>
    <path d="M22.827,289.281c-0,0 80.598,-13.871 143.113,25.144c-0,0 -12.328,-32.284 -80.576,-36.737c-0,-0 -36.264,-1.933 -82.864,13.626l20.327,-2.033Z" style="fill:#aaff3a;stroke:#4cad00;stroke-width:5px;"/>
    <path d="M205.802,186.834c-0,-0 -47.13,43.628 -45.119,107.137c-0,0 -19.45,-27.182 7.907,-73.781c-0,0 14.872,-24.502 47.962,-45.233l-10.75,11.877Z" style="fill:#79d500;stroke:#3c8900;stroke-width:3.5px;"/>
    <path d="M153.944,297.027c-0,-0 -23.996,-74.57 -85.763,-109.876c0,0 33.501,-4.17 67.864,51.641c0,-0 17.884,29.851 25.221,76.377l-7.322,-18.142Z" style="fill:#aaff3a;stroke:#4cad00;stroke-width:3.5px;"/>
    <path d="M180.918,278.2c-0,0 40.804,-67.386 136.945,-62.214c0,-0 -50.821,-29.396 -106.361,8.971c0,0 -28.95,20.887 -42.775,68.546l12.191,-15.303Z" style="fill:#aaff3a;stroke:#469f00;stroke-width:3.5px;"/>
    <path d="M169.139,298.306c0,-0 5.325,-55.185 83.478,-83.429" style="fill:none;stroke:#469f00;stroke-width:2.5px;"/>
    <path d="M105.632,143.693c-0,-0 54.761,89.629 51.566,176.542c0,-0 23.192,-25.732 -8.315,-107.288c0,-0 -17.139,-43.184 -55.717,-92.371l12.466,23.117Z" style="fill:#aaff3a;stroke:#4cad00;stroke-width:3px;"/>
    <path d="M238.711,183.523c0,0 -60.618,53.242 -74.755,120.754c0,-0 -13.456,-26.265 27.173,-79.88c-0,-0 21.874,-28.261 61.902,-55.074l-14.32,14.2Z" style="fill:#91ff00;stroke:#388000;stroke-width:3.5px;"/>
    <path d="M315.859,285.34c-0,-0 -80.081,-21.875 -148.755,28.265c0,0 16.784,-43.041 86.729,-46.357c-0,-0 37.108,-1.179 82.415,21.632l-20.389,-3.54Z" style="fill:#91ff00;stroke:#75e022;stroke-width:5px;"/>
    <path d="M295.914,245.894c0,0 -84.01,3.542 -136.063,67.711c-0,0 3.789,-42.999 70.661,-65.987c-0,-0 35.646,-11.68 86.204,-4.426l-20.802,2.702Z" style="fill:#91ff00;stroke:#75e022;stroke-width:3px;"/>
    <path d="M153.133,169.492c0,-0 29.878,79.461 -4.446,152.24c0,-0 35.175,-19.859 28.588,-90.772c-0,-0 -4.001,-37.583 -29.983,-81.837l5.841,20.369Z" style="fill:#91ff00;stroke:#75e022;stroke-width:3px;"/>
    <path d="M172.285,310.342c0,-0 39.881,-22.718 91.384,25.948c-0,-0 -20.319,-42.346 -60.783,-44.681c0,-0 -21.322,-0.664 -41.264,22.51l10.663,-3.777Z" style="fill:#75ce00;stroke:#419500;stroke-width:5px;"/>
    <path d="M172.285,310.342c-3.545,-0.748 12.551,-20.707 49.739,-7.791" style="fill:none;stroke:#419500;stroke-width:2px;"/>
    <path d="M222.024,311.34l-120.408,-0l3,20.69l114.408,-0l3,-20.69Z" style="fill:#fff;stroke:#000;stroke-width:1px;"/>
    <g>
      <path d="M182.137,314.95c-0,-0 35.37,12.205 19.946,84.274c0,-0 24.215,-45.14 8.213,-75.848c-0,-0 -8.876,-15.772 -35.817,-13.348l7.658,4.922Z" style="fill:#aaff3a;stroke:#4cad00;stroke-width:3.5px;"/>
      <path d="M175.519,309.743c-0,0 30.925,5.942 32.21,30.79" style="fill:none;stroke:#4cad00;stroke-width:1.5px;"/>
    </g>
    <path d="M142.739,309.734c0,0 -53.06,-13.184 -90.994,89.49c-0,-0 5.889,-76.025 49.771,-101.603c-0,0 23.344,-12.608 54.51,12.113l-13.287,0Z" style="fill:#91ff00;stroke:#57c500;stroke-width:5px;"/>
    <path d="M158.026,309.371c-0,-0 19.788,-32.156 11.54,-92.685" style="fill:none;stroke:#75e022;stroke-width:2px;"/>
    <g>
      <path d="M149.102,312.455c0,-0 -37.387,-1.492 -49.224,71.252c-0,0 -6.144,-50.855 19.929,-73.642c0,-0 14.004,-11.465 38.219,0.59l-8.924,1.8Z" style="fill:#aaff3a;stroke:#4cad00;stroke-width:3.5px;"/>
      <path d="M157.161,310.011c-0,0 -30.969,-5.71 -41.202,16.97" style="fill:none;stroke:#4cad00;stroke-width:1.5px;"/>
    </g>
  </g>
  <g id="monitor">
    <g id="display">
      <path d="M720.85,6.53c0,-3.33 -2.699,-6.03 -6.029,-6.03c-55.521,0 -477.011,0 -532.532,-0c-3.33,0 -6.03,2.7 -6.03,6.03c0,41.477 0,284.14 0,325.618c0,3.33 2.7,6.029 6.03,6.029c55.521,0 477.011,0 532.532,0c3.33,0 6.029,-2.699 6.029,-6.029c0,-41.478 0,-284.141 0,-325.618Z" style="fill:#fff;stroke:#000;stroke-width:1px;"/>
      <rect x="186.611" y="13.84" width="523.887" height="310.996" style="fill:none;stroke:#000;stroke-width:1px;"/>
    </g>
    <g id="base">
      <rect x="382.891" y="338.177" width="131.328" height="54.666" style="fill:#fff;stroke:#000;stroke-width:1px;"/>
      <path d="M588.992,395.814c0,-0.788 -0.313,-1.543 -0.87,-2.1c-0.557,-0.557 -1.313,-0.87 -2.1,-0.87c-28.109,-0 -246.826,-0 -274.934,-0c-0.788,-0 -1.543,0.313 -2.101,0.87c-0.557,0.557 -0.87,1.312 -0.87,2.1c0,2.532 0,6.152 0,8.684c0,0.788 0.313,1.544 0.87,2.101c0.558,0.557 1.313,0.87 2.101,0.87c28.108,-0 246.825,-0 274.934,-0c0.787,-0 1.543,-0.313 2.1,-0.87c0.557,-0.557 0.87,-1.313 0.87,-2.101c0,-2.532 0,-6.152 0,-8.684Z" style="fill:#fff;stroke:#000;stroke-width:1px;"/>
    </g>
  </g>
  <g id="window">
      <g id="window1" serif:id="window">
          <path d="M607.711,43.951c-0,-4.824 -3.911,-8.735 -8.735,-8.735c-51.156,0 -311.416,0 -362.572,0c-4.824,0 -8.735,3.911 -8.735,8.735c0,40.554 0,210.221 0,250.776c0,4.823 3.911,8.734 8.735,8.734c51.156,-0 311.416,-0 362.572,-0c4.824,-0 8.735,-3.911 8.735,-8.734c-0,-40.555 -0,-210.222 -0,-250.776Z" style="fill:#fff;stroke:#000;stroke-width:1px;"/>
          <path d="M607.711,44.148c-0,-2.369 -0.941,-4.641 -2.617,-6.316c-1.675,-1.675 -3.946,-2.616 -6.315,-2.616c-51.559,0 -310.619,0 -362.178,0c-2.368,0 -4.64,0.941 -6.315,2.616c-1.675,1.675 -2.617,3.947 -2.617,6.316c0,4.8 0,9.743 0,9.743l380.042,-0l-0,-9.743Z" style="fill:#eaeaea;stroke:#030000;stroke-width:1px;"/>
          <circle cx="238.575" cy="44.553" r="3.718" style="fill:#ff3535;"/>
          <circle cx="249.948" cy="44.553" r="3.718" style="fill:#ffc535;"/>
          <circle cx="261.291" cy="44.553" r="3.718" style="fill:#04cc00;"/>
          <path d="M591.378,66.455c0,-4.704 -3.813,-8.518 -8.518,-8.518l-293.161,0c-4.704,0 -8.518,3.814 -8.518,8.518l0,0.001c0,4.704 3.814,8.518 8.518,8.518l293.161,-0c4.705,-0 8.518,-3.814 8.518,-8.518l0,-0.001Z" style="fill:#eaeaea;"/>
          <g>
              <path d="M234.95,66.426l7.037,0.059" style="fill:none;stroke:#7c7c7c;stroke-width:1px;"/>
              <path d="M234.95,66.426l3.519,-3.539" style="fill:none;stroke:#7c7c7c;stroke-width:1px;"/>
              <path d="M234.95,66.485l3.519,3.539" style="fill:none;stroke:#7c7c7c;stroke-width:1px;"/>
          </g>
          <g>
              <path d="M257.269,66.455l-7.038,0.06" style="fill:none;stroke:#b5b5b5;stroke-width:1px;"/>
              <path d="M257.269,66.455l-3.519,-3.538" style="fill:none;stroke:#b5b5b5;stroke-width:1px;"/>
              <path d="M257.269,66.515l-3.519,3.539" style="fill:none;stroke:#b5b5b5;stroke-width:1px;"/>
          </g>
          <g>
              <path d="M270.68,68.995c-0.596,0.609 -1.414,1.003 -2.384,0.999c-2.912,-0.012 -4.528,-3.441 -2.723,-5.742c0.207,-0.264 0.45,-0.504 0.723,-0.699c0.28,-0.198 0.59,-0.362 0.917,-0.466c0.349,-0.111 0.718,-0.17 1.083,-0.17c0.479,-0 0.936,0.093 1.377,0.278c0.4,0.167 0.825,0.445 1.125,0.759c0.75,0.782 1.028,1.789 0.934,2.755" style="fill:none;stroke:#7c7c7c;stroke-width:1px;"/>
              <path d="M269.524,65.889l2.226,0.82" style="fill:none;stroke:#7c7c7c;stroke-width:1px;"/>
              <path d="M272.919,64.497l-1.084,2.212" style="fill:none;stroke:#7c7c7c;stroke-width:1px;"/>
          </g>
          <g>
              <ellipse cx="598.446" cy="63.205" rx="0.554" ry="0.465" style="fill:#7c7c7c;stroke:#7c7c7c;stroke-width:1px;"/>
              <ellipse cx="598.446" cy="66.455" rx="0.554" ry="0.465" style="stroke:#7c7c7c;stroke-width:1px;"/>
              <ellipse cx="598.446" cy="69.705" rx="0.554" ry="0.465" style="fill:#a2a2a2;stroke:#7c7c7c;stroke-width:1px;"/>
          </g>
          <rect x="228.72" y="79.643" width="377.94" height="0.093" style="fill:none;stroke:#eaeaea;stroke-width:1px;"/>
      </g>
      <g id="nav">
          <rect x="505.466" y="87.07" width="21.568" height="7.233" style="fill:#eaeaea;"/>
          <rect x="536.051" y="87.07" width="31.413" height="7.233" style="fill:#eaeaea;"/>
          <rect x="576.483" y="87.07" width="21.476" height="7.233" style="fill:#eaeaea;"/>
          <rect x="461.913" y="87.07" width="34.535" height="7.233" style="fill:#eaeaea;"/>
          <rect x="234.737" y="87.07" width="82.227" height="7.233" style="fill:#eaeaea;"/>
      </g>
      <g id="intro">
          <rect x="417.561" y="129.146" width="108.81" height="80.385" style="fill:#5fccef;"/>
          <rect x="234.608" y="133.755" width="138.357" height="10.767" style="fill:#009cce;"/>
          <rect x="234.608" y="149.27" width="86.529" height="10.767" style="fill:#009cce;"/>
          <rect x="234.608" y="183.031" width="131.284" height="6.85" style="fill:#eaeaea;"/>
          <rect x="234.608" y="196.475" width="103.895" height="6.85" style="fill:#eaeaea;"/>
          <rect x="235.634" y="169.339" width="123.689" height="6.85" style="fill:#eaeaea;"/>
      </g>
      <g id="about">
          <rect x="234.608" y="247.707" width="241.818" height="6.85" style="fill:#eaeaea;"/>
          <rect x="234.608" y="261.022" width="241.818" height="6.85" style="fill:#eaeaea;"/>
          <rect x="234.608" y="274.4" width="241.818" height="6.85" style="fill:#eaeaea;"/>
          <rect x="234.608" y="227.309" width="86.529" height="10.767" style="fill:#009cce;"/>
      </g>
  </g>
  <g id="macbook">
      <path d="M879.821,229.459c-0,-10.847 -8.793,-19.64 -19.639,-19.64c-69.899,0 -306.129,0 -376.027,0c-10.847,0 -19.64,8.793 -19.64,19.64c0,58.718 0,228.892 0,228.892l415.306,-0l-0,-228.892Z" style="fill:#fff;"/>
      <path d="M882.321,229.459c-0,-12.227 -9.912,-22.14 -22.139,-22.14c-69.899,0 -306.129,0 -376.027,0c-12.227,0 -22.14,9.913 -22.14,22.14c0,58.718 0,228.892 0,228.892c0,1.38 1.12,2.5 2.5,2.5l415.306,-0c1.381,-0 2.5,-1.12 2.5,-2.5l-0,-228.892Zm-5,-0l-0,226.392c-0,-0 -410.306,-0 -410.306,-0c0,-0 0,-226.392 0,-226.392c0,-9.466 7.674,-17.14 17.14,-17.14c69.898,0 306.128,0 376.027,0c9.465,0 17.139,7.674 17.139,17.14Z" style="fill:#fff;stroke:#000;stroke-width:1px;stroke-linecap:butt;stroke-miterlimit:2;"/>
      <rect x="480.212" y="241.265" width="383.913" height="198.554" style="fill:none;stroke:#000;stroke-width:1px;"/>
      <circle cx="671.414" cy="227.615" r="5.194" style="fill:none;stroke:#000;stroke-width:1px;"/>
      <path d="M921.997,455.351l-501.166,-0l-0,4.006c-0,5.865 4.754,10.619 10.618,10.619c65.539,-0 414.391,-0 479.93,-0c5.864,-0 10.618,-4.754 10.618,-10.619c0,-2.273 0,-4.006 0,-4.006Z" style="fill:#fff;stroke:#000;stroke-width:1px;"/>
      <path d="M921.997,455.351l-501.166,-0l-0,4.647c-0,0.707 0.28,1.385 0.78,1.885c0.5,0.5 1.178,0.78 1.885,0.78c36.737,0 441.749,0 493.148,0c2.957,0 5.353,-2.396 5.353,-5.353l0,-1.959Z" style="fill:none;stroke:#060000;stroke-width:1px;"/>
      <path d="M739.293,455.351l-134.672,-0l0,2.87c0,2.453 1.99,4.442 4.443,4.442c20.444,0 105.343,0 125.786,0c2.454,0 4.443,-1.989 4.443,-4.442c0,-1.532 0,-2.87 0,-2.87Z" style="fill:none;stroke:#020000;stroke-width:1px;"/>
  </g>
  <g id="screen">
      <rect x="490.897" y="249.155" width="28.268" height="7.895" style="fill:#5fccef;"/>
      <rect x="552.335" y="249.155" width="17.381" height="7.895" style="fill:#5fccef;"/>
      <rect x="524.617" y="249.155" width="22.004" height="7.895" style="fill:#009cce;"/>
      <rect x="575.567" y="249.155" width="28.268" height="7.895" style="fill:#8ccb58;"/>
      <rect x="490.897" y="261.118" width="28.268" height="7.895" style="fill:#5fccef;"/>
      <rect x="594.176" y="261.118" width="53.216" height="7.895" style="fill:#8ccb58;"/>
      <rect x="570.944" y="261.118" width="17.381" height="7.895" style="fill:#5fccef;"/>
      <rect x="524.617" y="261.118" width="40.641" height="7.895" style="fill:#009cce;"/>
      <rect x="490.897" y="285.044" width="21.904" height="7.895" style="fill:#6b40b8;"/>
      <rect x="518.811" y="285.044" width="78.417" height="7.895" style="fill:#638ddc;"/>
      <rect x="602.739" y="285.044" width="30.021" height="7.895" style="fill:#e9ad5a;"/>
      <rect x="500.202" y="297.007" width="21.904" height="7.895" style="fill:#6b40b8;"/>
      <rect x="528.115" y="297.007" width="33.714" height="7.895" style="fill:#c296fe;"/>
      <rect x="567.991" y="297.007" width="23.75" height="7.895" style="fill:#c296fe;"/>
      <rect x="597.234" y="297.007" width="23.75" height="7.895" style="fill:#c296fe;"/>
      <rect x="626.476" y="297.007" width="47.149" height="7.895" style="fill:#c296fe;"/>
      <rect x="679.037" y="297.007" width="24.497" height="7.895" style="fill:#d7ddf7;"/>
      <rect x="509.07" y="319.504" width="38.089" height="7.895" style="fill:#e84a6c;"/>
      <rect x="516.67" y="331.79" width="47.999" height="7.895" style="fill:#e84a6c;"/>
      <rect x="569.936" y="331.79" width="45.159" height="7.895" style="fill:#c296fe;"/>
      <rect x="620.446" y="331.79" width="55.15" height="7.895" style="fill:#8ccb58;"/>
      <rect x="680.742" y="331.79" width="30.552" height="7.895" style="fill:#8ccb58;"/>
      <rect x="535.372" y="345.789" width="20.768" height="7.895" style="fill:#e84a6c;"/>
      <rect x="561.564" y="345.789" width="40.339" height="7.895" style="fill:#c296fe;"/>
      <rect x="607.245" y="345.789" width="49.258" height="7.895" style="fill:#8ccb58;"/>
      <rect x="662.37" y="345.789" width="60.523" height="7.895" style="fill:#8ccb58;"/>
      <rect x="728.211" y="345.789" width="39.287" height="7.895" style="fill:#8ccb58;"/>
      <rect x="545.757" y="358.955" width="37.47" height="7.895" style="fill:#e84a6c;"/>
      <rect x="589.473" y="358.955" width="22.11" height="7.895" style="fill:#c296fe;"/>
      <rect x="617.387" y="358.955" width="30.029" height="7.895" style="fill:#d7ddf7;"/>
      <rect x="653.275" y="358.955" width="59.874" height="7.895" style="fill:#c296fe;"/>
      <rect x="718.629" y="358.955" width="28.764" height="7.895" style="fill:#e9ad5a;"/>
      <rect x="554.8" y="372.167" width="28.427" height="7.895" style="fill:#d7ddf7;"/>
      <rect x="545.757" y="385.203" width="37.47" height="7.895" style="fill:#e84a6c;"/>
      <rect x="535.048" y="397.782" width="19.752" height="7.895" style="fill:#e84a6c;"/>
      <rect x="516.67" y="411.312" width="47.999" height="7.895" style="fill:#e84a6c;"/>
      <rect x="509.07" y="424.034" width="38.089" height="7.895" style="fill:#e84a6c;"/>
  </g>
  <g id="mug">
      <path d="M221.892,407.275c-5.394,0.557 -10.198,3.485 -13.797,8.209c-4.648,6.098 -7.274,15.382 -6.23,25.495c1.045,10.114 5.513,18.665 11.308,23.685c4.489,3.888 9.79,5.773 15.184,5.216c5.394,-0.557 10.198,-3.485 13.797,-8.209c4.647,-6.098 7.274,-15.382 6.229,-25.495c-1.044,-10.114 -5.512,-18.665 -11.307,-23.685c-4.489,-3.888 -9.79,-5.773 -15.184,-5.216l-0,-0Zm1.13,10.942c2.461,-0.254 4.804,0.814 6.851,2.588c4.009,3.473 6.846,9.505 7.568,16.501c0.723,6.995 -0.822,13.48 -4.036,17.698c-1.642,2.155 -3.717,3.68 -6.178,3.934c-2.461,0.254 -4.804,-0.814 -6.852,-2.588c-4.008,-3.473 -6.846,-9.505 -7.568,-16.501c-0.722,-6.995 0.823,-13.48 4.037,-17.698c1.642,-2.155 3.717,-3.68 6.178,-3.934l-0,-0Z" style="fill:#fff;stroke:#000;stroke-width:1px;stroke-linecap:butt;stroke-miterlimit:2;"/>
      <path d="M292.962,393.773l-74.009,0l11.096,89.609l51.817,-0l11.096,-89.609Z" style="fill:#fff;stroke:#000;stroke-width:1px;"/>
  </g>
</svg>
